<?xml version="1.0" encoding="utf-8"?>
<!-- Generator: Adobe Illustrator 28.1.0, SVG Export Plug-In . SVG Version: 6.00 Build 0)  -->
<svg version="1.1" id="Layer_1" xmlns="http://www.w3.org/2000/svg" xmlns:xlink="http://www.w3.org/1999/xlink" x="0px" y="0px"
	 viewBox="0 0 1920 1080" style="enable-background:new 0 0 1920 1080;" xml:space="preserve">
<style type="text/css">
	.st0{fill:#FFFFFF;}
	.st1{fill:#030303;}
	.st2{fill:#7FB2F0;}
	.st3{fill:#FEFEFE;}
	.st4{fill:#FEFFFF;}
	.st5{fill:#FDFDFD;}
	.st6{fill:#040404;}
</style>
<g>
	<g>
		<path class="st0" d="M837,417c81.78,0,163.56,0,245.35,0c0,81.78,0,163.56,0,245.35c-81.78,0-163.56,0-245.35,0
			C837,580.56,837,498.78,837,417z M876.1,530.2c-0.14,0.45-0.24,0.77-0.35,1.09c-2.93,8.42-5.49,16.95-7.38,25.67
			c-1.59,7.32-2.58,14.71-3.09,22.18c-0.18,2.57-0.36,5.14-0.46,7.71c-0.18,4.52-0.32,9.04-0.44,13.57
			c-0.04,1.28,0.6,1.99,1.88,2.16c1.4,0.18,2.81,0.32,4.21,0.45c3.42,0.31,6.83,0.37,10.24-0.26c3.07-0.56,6.08-1.27,8.83-2.8
			c0.52-0.29,0.94-0.27,1.47-0.03c4.47,1.98,8.96,3.91,13.44,5.88c6.07,2.66,12.26,4.97,18.64,6.75c0.28,0.08,0.56,0.28,0.75,0.5
			c4.14,4.57,9.22,7.85,14.75,10.43c5.53,2.58,11.39,4.06,17.46,4.68c1.53,0.15,3.08,0.33,4.6,0.24c3.23-0.19,6.44-0.57,9.6-1.32
			c4.81-1.15,9.48-2.66,13.8-5.11c4.33-2.46,8.44-5.22,11.79-8.98c0.21-0.24,0.56-0.38,0.87-0.48c2.45-0.78,4.91-1.52,7.35-2.32
			c5.01-1.65,9.81-3.84,14.67-5.85c3.36-1.39,6.65-2.94,9.97-4.43c0.43-0.19,0.77-0.26,1.22-0.01c3.18,1.78,6.67,2.52,10.22,3.07
			c2.78,0.43,5.58,0.33,8.37,0.13c1.66-0.12,3.31-0.32,4.96-0.52c1.02-0.13,1.64-0.78,1.73-1.7c0.02-0.22,0.01-0.44,0.01-0.66
			c-0.06-7.29-0.34-14.58-0.96-21.84c-0.36-4.28-0.81-8.57-1.41-12.83c-0.73-5.22-1.97-10.35-3.23-15.47
			c-1.58-6.4-3.67-12.65-5.78-18.89c-0.1-0.28-0.18-0.57-0.3-0.99c0.77,0.1,1.42,0.14,2.06,0.26c2.19,0.42,4.37,0.85,6.55,1.29
			c1.57,0.32,2.87-0.87,2.59-2.42c-0.74-4.13-1.95-8.12-3.8-11.89c-1.05-2.14-2.19-4.24-3.31-6.34c-0.24-0.44-0.31-0.84-0.17-1.33
			c0.34-1.18,0.61-2.37,0.95-3.55c4.41-15.64,11.92-29.58,22.87-41.62c0.65-0.72,1.14-1.46,1.38-2.4c0.29-1.13-0.16-2.09-1.27-2.49
			c-0.53-0.19-1.08-0.34-1.62-0.48c-6.89-1.85-13.94-2.64-21.05-2.77c-2.38-0.04-4.77,0.17-7.15,0.32
			c-4.96,0.31-9.87,1.07-14.7,2.19c-10.38,2.41-19.33,7.51-26.93,14.9c-5.9,5.73-10.97,12.17-15.21,19.25
			c-0.13,0.21-0.27,0.41-0.38,0.6c-2.09-0.34-4.13-0.68-6.18-0.99c-3.76-0.57-7.54-0.98-11.34-1.06c-4.65-0.1-9.3-0.1-13.95,0
			c-3.81,0.08-7.58,0.49-11.34,1.05c-2.07,0.31-4.14,0.66-6.24,1c-0.07-0.1-0.15-0.19-0.22-0.3c-2.94-5-6.42-9.6-10.19-14
			c-3.82-4.46-7.97-8.53-12.86-11.84c-5.69-3.86-11.78-6.81-18.47-8.43c-4.43-1.07-8.92-1.79-13.46-2.21
			c-4.07-0.37-8.13-0.63-12.23-0.4c-5.09,0.29-10.13,0.89-15.12,1.96c-1.47,0.32-2.92,0.73-4.36,1.16
			c-1.28,0.38-1.73,1.38-1.38,2.65c0.24,0.88,0.63,1.62,1.31,2.23c0.32,0.29,0.6,0.65,0.89,0.98c5.38,6.03,9.86,12.67,13.68,19.79
			c4.18,7.8,7.17,16.02,9.32,24.57c0.11,0.43,0.05,0.79-0.16,1.16c-0.48,0.84-0.94,1.7-1.4,2.56c-1.93,3.54-3.62,7.17-4.66,11.08
			c-0.42,1.57-0.78,3.17-1.06,4.77c-0.2,1.1,0.34,1.91,1.42,2.23c0.39,0.12,0.87,0.11,1.28,0.02
			C870.34,531.06,873.1,530.48,876.1,530.2z"/>
		<path class="st1" d="M876.1,530.2c-3,0.28-5.76,0.87-8.51,1.49c-0.41,0.09-0.88,0.1-1.28-0.02c-1.07-0.32-1.61-1.12-1.42-2.23
			c0.29-1.6,0.65-3.2,1.06-4.77c1.04-3.91,2.73-7.54,4.66-11.08c0.47-0.85,0.92-1.71,1.4-2.56c0.21-0.38,0.27-0.73,0.16-1.16
			c-2.15-8.55-5.14-16.77-9.32-24.57c-3.82-7.12-8.3-13.76-13.68-19.79c-0.29-0.33-0.56-0.68-0.89-0.98
			c-0.67-0.61-1.07-1.35-1.31-2.23c-0.34-1.27,0.1-2.27,1.38-2.65c1.44-0.43,2.89-0.84,4.36-1.16c4.98-1.07,10.02-1.67,15.12-1.96
			c4.1-0.23,8.16,0.03,12.23,0.4c4.54,0.41,9.03,1.14,13.46,2.21c6.69,1.62,12.78,4.58,18.47,8.43c4.88,3.31,9.04,7.38,12.86,11.84
			c3.77,4.4,7.25,9,10.19,14c0.06,0.11,0.14,0.2,0.22,0.3c2.09-0.34,4.16-0.69,6.24-1c3.76-0.56,7.54-0.97,11.34-1.05
			c4.65-0.1,9.3-0.1,13.95,0c3.81,0.08,7.58,0.5,11.34,1.06c2.05,0.31,4.09,0.65,6.18,0.99c0.12-0.18,0.26-0.39,0.38-0.6
			c4.24-7.08,9.31-13.52,15.21-19.25c7.6-7.39,16.56-12.48,26.93-14.9c4.84-1.12,9.74-1.88,14.7-2.19c2.38-0.15,4.77-0.37,7.15-0.32
			c7.12,0.13,14.16,0.92,21.05,2.77c0.54,0.15,1.09,0.29,1.62,0.48c1.1,0.4,1.56,1.36,1.27,2.49c-0.24,0.94-0.73,1.68-1.38,2.4
			c-10.95,12.04-18.46,25.98-22.87,41.62c-0.33,1.18-0.61,2.37-0.95,3.55c-0.14,0.49-0.07,0.89,0.17,1.33
			c1.12,2.1,2.27,4.2,3.31,6.34c1.85,3.77,3.06,7.76,3.8,11.89c0.28,1.55-1.02,2.74-2.59,2.42c-2.18-0.45-4.37-0.88-6.55-1.29
			c-0.64-0.12-1.29-0.17-2.06-0.26c0.13,0.42,0.21,0.71,0.3,0.99c2.11,6.24,4.2,12.49,5.78,18.89c1.27,5.12,2.51,10.25,3.23,15.47
			c0.59,4.26,1.04,8.54,1.41,12.83c0.62,7.27,0.9,14.55,0.96,21.84c0,0.22,0.01,0.44-0.01,0.66c-0.09,0.92-0.72,1.57-1.73,1.7
			c-1.65,0.21-3.31,0.4-4.96,0.52c-2.79,0.21-5.59,0.3-8.37-0.13c-3.55-0.55-7.04-1.29-10.22-3.07c-0.45-0.25-0.8-0.18-1.22,0.01
			c-3.32,1.49-6.61,3.04-9.97,4.43c-4.86,2.02-9.66,4.21-14.67,5.85c-2.44,0.8-4.91,1.54-7.35,2.32c-0.31,0.1-0.66,0.25-0.87,0.48
			c-3.34,3.76-7.45,6.52-11.79,8.98c-4.32,2.45-9,3.96-13.8,5.11c-3.16,0.76-6.37,1.13-9.6,1.32c-1.52,0.09-3.07-0.08-4.6-0.24
			c-6.07-0.61-11.94-2.1-17.46-4.68c-5.52-2.58-10.6-5.86-14.75-10.43c-0.2-0.22-0.48-0.42-0.75-0.5
			c-6.38-1.78-12.57-4.09-18.64-6.75c-4.48-1.96-8.97-3.9-13.44-5.88c-0.53-0.24-0.95-0.26-1.47,0.03c-2.75,1.53-5.77,2.24-8.83,2.8
			c-3.4,0.62-6.81,0.57-10.24,0.26c-1.41-0.13-2.81-0.27-4.21-0.45c-1.28-0.16-1.92-0.88-1.88-2.16c0.12-4.52,0.26-9.05,0.44-13.57
			c0.1-2.57,0.28-5.14,0.46-7.71c0.51-7.47,1.5-14.86,3.09-22.18c1.9-8.72,4.45-17.25,7.38-25.67
			C875.86,530.97,875.96,530.65,876.1,530.2z M909.76,603.71c0.07,0.05,0.15,0.1,0.22,0.15c0.08,0.05,0.15,0.13,0.23,0.16
			c2.41,0.91,4.81,1.81,7.22,2.7c0.23,0.08,0.47,0.13,0.77,0.21c-0.5-1.13-1.03-2.16-1.43-3.23c-2.1-5.75-2.12-11.54-0.25-17.36
			c1.23-3.84,3.41-7.12,5.84-10.26c1.32-1.7,2.91-3.12,4.69-4.33c4.87-3.34,10.26-5.22,16.13-5.75c3.98-0.36,7.98-0.57,11.95-0.17
			c3.14,0.32,6.23,0.31,9.37,0c3.72-0.37,7.46-0.18,11.2,0.12c5.18,0.42,10.06,1.76,14.57,4.37c2.55,1.47,4.93,3.16,6.75,5.5
			c1.13,1.46,2.22,2.97,3.21,4.53c2.99,4.72,4.43,9.88,4.19,15.47c-0.16,3.75-1.02,7.33-2.83,10.65c-0.06,0.12-0.1,0.25-0.21,0.52
			c2.93-0.95,5.66-1.93,8.31-3.13c0.23-0.08,0.48-0.14,0.7-0.24c5.52-2.39,11.03-4.77,16.54-7.16c0.57-0.25,1.15-0.51,1.72-0.74
			c0.65-0.26,1.28-0.22,1.9,0.13c0.35,0.2,0.72,0.38,1.08,0.56c1.33,0.55,2.61,1.23,3.98,1.63c2.99,0.87,6.05,1.44,9.19,1.32
			c2.16-0.08,4.31-0.23,6.54-0.35c0-0.43,0.01-0.74,0-1.04c-0.22-7.69-0.47-15.39-1.25-23.04c-0.37-3.65-0.77-7.31-1.41-10.92
			c-1.54-8.69-3.69-17.24-6.52-25.61c-0.95-2.82-1.93-5.64-2.89-8.46c-0.08-0.27-0.14-0.55-0.26-0.8c-0.67-1.47,0.45-2.87,1.92-2.85
			c1.86,0.03,3.7,0.07,5.54,0.38c1.26,0.22,2.51,0.43,3.85,0.65c-0.05-0.29-0.06-0.5-0.13-0.7c-0.7-2.05-1.26-4.15-2.14-6.12
			c-1.16-2.6-2.5-5.13-3.88-7.63c-0.71-1.29-0.9-2.48-0.52-3.93c2.26-8.81,5.32-17.31,9.63-25.35c3.96-7.4,8.6-14.31,14.2-20.57
			c0.07-0.08,0.11-0.2,0.17-0.33c-0.29-0.08-0.53-0.16-0.77-0.22c-5.22-1.18-10.51-1.84-15.85-2.08c-3.49-0.16-6.97,0.03-10.45,0.34
			c-4.64,0.42-9.23,1.09-13.74,2.23c-9.28,2.33-17.33,6.98-24.15,13.62c-6.03,5.87-11.21,12.47-15.39,19.8
			c-0.44,0.78-0.95,1.4-1.89,1.53c-2.28-0.41-4.56-0.88-6.86-1.21c-2.79-0.4-5.6-0.82-8.41-0.99c-3.29-0.2-6.59-0.17-9.89-0.21
			c-1.51-0.02-3.02,0.09-4.52,0.03c-2.9-0.12-5.78,0.07-8.65,0.37c-4.31,0.45-8.59,1.1-12.83,2.03c-0.89-0.01-1.39-0.57-1.79-1.28
			c-2.97-5.27-6.58-10.09-10.5-14.69c-3.96-4.64-8.33-8.79-13.49-12.09c-4.9-3.14-10.11-5.55-15.77-6.94
			c-3.87-0.95-7.81-1.6-11.77-2.01c-3.62-0.38-7.25-0.67-10.91-0.58c-4.25,0.11-8.46,0.52-12.65,1.21c-1.82,0.3-3.62,0.71-5.52,1.09
			c0.17,0.23,0.25,0.36,0.35,0.47c5.92,6.61,10.75,13.96,14.83,21.83c4.13,7.96,7.03,16.35,9.14,25.03
			c0.16,0.64,0.06,1.25-0.21,1.83c-0.17,0.37-0.38,0.72-0.56,1.08c-1.4,2.77-2.85,5.52-4.17,8.33c-0.9,1.92-1.49,3.96-1.98,6.11
			c1.35-0.23,2.61-0.44,3.87-0.65c1.9-0.32,3.81-0.45,5.73-0.35c1.46,0.08,2.24,1.23,1.8,2.63c-0.1,0.33-0.19,0.66-0.29,0.99
			c-0.06,0.11-0.14,0.21-0.18,0.32c-3.18,9.07-6.07,18.22-8.08,27.63c-1.28,6-2.22,12.04-2.71,18.15c-0.24,2.97-0.47,5.95-0.62,8.93
			c-0.21,4.46-0.35,8.92-0.51,13.37c-0.01,0.2,0.05,0.41,0.08,0.6c0.53,0.06,1,0.11,1.47,0.15c3.67,0.32,7.33,0.48,10.98-0.29
			c2.47-0.52,4.89-1.11,7.1-2.37c0.14-0.06,0.31-0.1,0.43-0.19c1.17-0.88,2.3-0.73,3.6-0.15c5.63,2.51,11.3,4.93,16.95,7.38
			c0.28,0.12,0.58,0.17,0.88,0.25L909.76,603.71z M962.46,595.49c-0.15,2.13-0.31,4.17-0.45,6.2c-0.07,0.97-0.11,1.94-0.16,2.91
			c-0.02,0.49,0.22,0.81,0.63,1.08c2.56,1.68,5.28,3.02,8.23,3.87c2.8,0.81,5.68,1.08,8.57,1.07c2.67-0.01,5.34-0.13,8-0.39
			c2.21-0.22,4.4-0.7,6.59-1.12c0.44-0.08,0.91-0.3,1.23-0.6c2.09-1.98,3.62-4.31,4.47-7.09c1.41-4.62,1.34-9.21-0.13-13.8
			c-1.12-3.51-3.13-6.48-5.39-9.32c-0.62-0.78-1.34-1.51-2.11-2.14c-3.02-2.5-6.46-4.2-10.21-5.27c-2.76-0.79-5.61-1.09-8.47-1.23
			c-3.61-0.17-7.22-0.23-10.82,0.25c-1.53,0.2-3.04,0.34-4.59,0.09c-1.48-0.25-3-0.39-4.5-0.39c-2.89-0.01-5.78,0.02-8.67,0.19
			c-3.75,0.23-7.38,1-10.84,2.57c-4.38,1.99-8.01,4.79-10.5,8.97c-0.32,0.54-0.68,1.05-1.02,1.59c-1.91,3.04-2.84,6.42-3.25,9.94
			c-0.24,2-0.03,4.02,0.34,6.01c0.62,3.34,1.93,6.32,4.28,8.86c0.88,0.95,1.85,1.4,3.05,1.64c3.21,0.67,6.45,1.01,9.71,1.19
			c3.66,0.2,7.29,0.09,10.88-0.63c3.59-0.72,6.82-2.29,9.85-4.3c0.2-0.13,0.43-0.34,0.47-0.54c0.1-0.55,0.18-1.12,0.14-1.68
			c-0.15-2.35-0.37-4.69-0.51-7.04c-0.04-0.61-0.21-0.93-0.79-1.21c-2.34-1.12-3.87-2.95-4.5-5.49c-0.6-2.43,0.33-4.77,2.61-5.75
			c3.4-1.45,6.94-1.45,10.35-0.01c2.32,0.99,3.27,3.39,2.63,5.82c-0.64,2.41-2.07,4.19-4.29,5.33
			C963.03,595.21,962.75,595.35,962.46,595.49z M959.84,608.55c-0.17,0.1-0.3,0.17-0.43,0.26c-5.48,3.72-11.53,5.58-18.15,5.67
			c-3.56,0.05-7.1-0.13-10.71-0.53c0.17,0.18,0.27,0.33,0.41,0.44c2.97,2.22,6.09,4.21,9.49,5.73c4.29,1.92,8.78,3.19,13.42,3.89
			c2.01,0.3,4.06,0.54,6.09,0.52c3.46-0.03,6.87-0.59,10.24-1.39c6.63-1.57,12.66-4.39,18.1-8.48c0.26-0.19,0.5-0.41,0.88-0.71
			c-4.73,0.51-9.27,0.77-13.83,0.35c-3.27-0.3-6.43-1.01-9.45-2.36C963.8,610.96,961.75,609.88,959.84,608.55z"/>
		<path class="st2" d="M1009.71,603.86c-2.65,1.21-5.39,2.18-8.31,3.13c0.11-0.27,0.14-0.4,0.21-0.52
			c1.81-3.32,2.67-6.89,2.83-10.65c0.25-5.6-1.2-10.76-4.19-15.47c-0.99-1.56-2.08-3.07-3.21-4.53c-1.82-2.35-4.2-4.03-6.75-5.5
			c-4.51-2.61-9.39-3.96-14.57-4.37c-3.74-0.3-7.48-0.49-11.2-0.12c-3.14,0.31-6.23,0.32-9.37,0c-3.98-0.4-7.97-0.19-11.95,0.17
			c-5.87,0.54-11.26,2.42-16.13,5.75c-1.78,1.22-3.37,2.63-4.69,4.33c-2.43,3.14-4.61,6.42-5.84,10.26
			c-1.87,5.82-1.85,11.61,0.25,17.36c0.39,1.07,0.92,2.1,1.43,3.23c-0.3-0.08-0.54-0.13-0.77-0.21c-2.41-0.9-4.82-1.8-7.22-2.7
			c-0.08-0.03-0.15-0.11-0.23-0.16c-0.07-0.05-0.15-0.1-0.22-0.15c0,0,0.01,0.02,0.01,0.02c-0.01-0.28,0.03-0.57-0.05-0.83
			c-0.83-2.92-1.08-5.92-1.2-8.92c-0.11-2.63,0.11-5.27,0.1-7.91c-0.01-2.08,0.46-4.04,1.17-5.96c0.3-0.82,0.19-1.55-0.35-2.21
			c-0.29-0.36-0.64-0.69-0.99-0.99c-2.09-1.77-4.09-3.63-5.78-5.79c-2.06-2.62-3.52-5.56-4.53-8.73c-0.5-1.58-0.91-3.19-1.36-4.79
			c-0.32-1.16-1.17-1.8-2.3-1.57c-0.49,0.1-0.99,0.41-1.36,0.75c-2.54,2.38-4.21,5.32-5.16,8.63c-0.59,2.07-0.98,4.21-1.31,6.34
			c-0.32,2.1-0.5,4.23-0.61,6.35c-0.1,1.91-0.05,3.83-0.01,5.75c0.03,1.32,0.08,2.64,0.25,3.94c0.25,1.99,0.57,3.97,0.93,5.94
			c0.16,0.92,0.47,1.81,0.72,2.71c-2.21,1.26-4.63,1.85-7.1,2.37c-3.65,0.76-7.31,0.6-10.98,0.29c-0.47-0.04-0.94-0.1-1.47-0.15
			c-0.03-0.19-0.09-0.4-0.08-0.6c0.16-4.46,0.29-8.92,0.51-13.37c0.14-2.98,0.38-5.96,0.62-8.93c0.49-6.11,1.43-12.15,2.71-18.15
			c2.01-9.41,4.89-18.56,8.08-27.63c0.04-0.11,0.12-0.21,0.18-0.32c0.71,0.04,1.39,0.26,2.14,0.11c3.85-0.77,7.29-2.45,10.62-4.45
			c4.25-2.56,7.83-5.96,11.59-9.14c1.94-1.64,3.89-3.28,5.98-4.72c3.12-2.16,6.34-4.18,9.56-6.2c2.26-1.41,4.55-2.78,6.91-4.04
			c2.05-1.09,4.2-1.99,6.29-2.99c0.3-0.14,0.54-0.39,0.81-0.59c4.24-0.93,8.52-1.58,12.83-2.03c2.87-0.3,5.76-0.48,8.65-0.37
			c1.5,0.06,3.01-0.05,4.52-0.03c3.3,0.04,6.6,0,9.89,0.21c2.81,0.17,5.62,0.59,8.41,0.99c2.3,0.33,4.57,0.8,6.86,1.21
			c0.26,0.21,0.48,0.48,0.77,0.63c1.01,0.5,2.06,0.93,3.07,1.44c2.05,1.01,4.15,1.95,6.12,3.11c3.46,2.04,6.85,4.2,10.23,6.36
			c2.83,1.81,5.55,3.78,8.12,5.95c2.35,1.99,4.62,4.06,6.98,6.03c3.76,3.13,7.84,5.77,12.45,7.48c1.95,0.73,3.93,1.53,6.11,1.03
			c0.97,2.82,1.94,5.63,2.89,8.46c2.83,8.37,4.97,16.92,6.52,25.61c0.64,3.61,1.04,7.27,1.41,10.92c0.78,7.66,1.03,15.35,1.25,23.04
			c0.01,0.31,0,0.61,0,1.04c-2.22,0.12-4.38,0.27-6.54,0.35c-3.14,0.12-6.2-0.45-9.19-1.32c-1.37-0.4-2.66-1.08-3.98-1.63
			c0.12-0.25,0.29-0.48,0.35-0.74c0.23-1.07,0.43-2.15,0.64-3.22c0.57-2.86,0.89-5.76,1-8.67c0.09-2.25-0.05-4.51-0.12-6.77
			c-0.09-2.67-0.52-5.29-0.96-7.92c-0.49-2.94-1.39-5.72-2.88-8.31c-0.93-1.62-2.11-3.05-3.49-4.29c-1.13-1.02-2.76-0.55-3.26,0.9
			c-0.08,0.24-0.13,0.48-0.19,0.73c-0.67,2.72-1.5,5.38-2.66,7.92c-1.57,3.41-3.82,6.33-6.62,8.82c-0.96,0.86-1.9,1.73-2.87,2.58
			c-0.92,0.81-1.08,1.79-0.67,2.9c0.76,2.05,1.15,4.16,1.15,6.35c0,1.5,0.14,3.01,0.14,4.51c0,1.32-0.07,2.63-0.17,3.95
			c-0.12,1.5-0.26,2.99-0.49,4.48C1010.33,601.05,1009.99,602.45,1009.71,603.86z M919.03,535.72c0.94,0.06,1.89,0.05,2.81,0.19
			c2.05,0.31,3.92,1.15,5.59,2.36c1.67,1.21,3.24,2.57,4.83,3.9c1.31,1.09,2.75,1.61,4.49,1.61c2.4,0,5.12-1.72,6.05-4.33
			c1.07-3.01,0.58-5.82-1.13-8.43c-1.93-2.93-4.67-4.87-7.89-6.16c-1.75-0.7-3.58-0.95-5.44-0.89c-1.34,0.05-2.68,0.27-4,0.53
			c-2.75,0.54-5.41,1.4-7.83,2.85c-1.72,1.03-3.39,2.15-5.01,3.33c-0.93,0.68-1.72,1.55-2.58,2.34c-0.77,0.71-0.78,1.61-0.6,2.53
			c0.15,0.78,0.89,1.37,1.69,1.39c0.4,0.01,0.81-0.05,1.21-0.13C913.8,536.26,916.37,535.68,919.03,535.72z M976.39,536.36
			c0,0.53-0.07,1.08,0.02,1.6c0.09,0.55,0.3,1.09,0.49,1.62c1.5,4.18,6.92,5.48,10.05,2.92c1.16-0.95,2.3-1.95,3.46-2.91
			c1.93-1.6,4.05-2.9,6.5-3.48c2.63-0.62,5.3-0.42,7.94,0.01c1.27,0.2,2.51,0.54,3.77,0.78c0.86,0.17,1.69,0.12,2.32-0.64
			c0.74-0.9,0.67-2.22-0.21-3.16c-2.38-2.56-5.22-4.52-8.3-6.11c-3.14-1.63-6.51-2.57-10.05-2.91c-1.97-0.19-3.88-0.03-5.75,0.56
			c-3.17,0.99-5.81,2.8-7.91,5.36C977.2,531.83,976.24,533.9,976.39,536.36z M1020.71,557.56c-0.08-5.19-1.81-9.22-5.27-12.44
			c-6.75-6.25-17.06-6.32-23.94-0.23c-7.73,6.85-7.23,19.11,1.14,25.19c5.87,4.27,12.26,4.85,18.75,1.64
			C1017.33,568.78,1020.39,563.76,1020.71,557.56z M916.93,540.38c-4.08,0.06-7.22,0.87-10.04,2.68c-5.07,3.25-7.86,7.88-7.93,13.93
			c-0.06,4.8,1.84,8.87,5.4,12.09c7.72,7,19.83,5.89,26.06-2.46c3.39-4.55,4.11-9.64,2.25-14.99
			C930.34,544.96,923.84,540.42,916.93,540.38z"/>
		<path class="st3" d="M934.27,497.91c-0.27,0.2-0.52,0.44-0.81,0.59c-2.1,1-4.25,1.9-6.29,2.99c-2.35,1.25-4.65,2.62-6.91,4.04
			c-3.22,2.01-6.44,4.04-9.56,6.2c-2.08,1.44-4.04,3.09-5.98,4.72c-3.76,3.18-7.34,6.59-11.59,9.14c-3.33,2-6.77,3.68-10.62,4.45
			c-0.75,0.15-1.43-0.07-2.14-0.11c0.1-0.33,0.19-0.66,0.29-0.99c0.43-1.4-0.34-2.55-1.8-2.63c-1.92-0.1-3.83,0.03-5.73,0.35
			c-1.26,0.21-2.52,0.43-3.87,0.65c0.49-2.15,1.08-4.19,1.98-6.11c1.32-2.81,2.77-5.55,4.17-8.33c0.18-0.36,0.39-0.71,0.56-1.08
			c0.27-0.58,0.37-1.2,0.21-1.83c-2.11-8.69-5.01-17.08-9.14-25.03c-4.08-7.87-8.91-15.22-14.83-21.83
			c-0.1-0.11-0.18-0.24-0.35-0.47c1.91-0.38,3.71-0.78,5.52-1.09c4.19-0.69,8.4-1.1,12.65-1.21c3.65-0.1,7.28,0.2,10.91,0.58
			c3.97,0.42,7.9,1.06,11.77,2.01c5.66,1.39,10.86,3.8,15.77,6.94c5.16,3.3,9.53,7.45,13.49,12.09c3.92,4.6,7.53,9.41,10.5,14.69
			C932.87,497.34,933.38,497.9,934.27,497.91z M909.78,504.89c1.61,0.02,2.58-1.25,2.12-2.51c-0.36-0.97-0.8-1.92-1.3-2.81
			c-2.53-4.48-5.56-8.59-9.12-12.31c-3.91-4.08-8.29-7.6-12.92-10.81c-3.93-2.72-8.09-5.05-12.6-6.69
			c-1.26-0.46-2.57-0.84-3.88-1.14c-1.45-0.34-2.63,0.95-2.26,2.37c0.21,0.82,0.81,1.24,1.6,1.42c2.74,0.64,5.3,1.71,7.8,2.98
			c3.94,1.99,7.59,4.42,11.08,7.12c7.53,5.81,13.97,12.54,18.04,21.28C908.66,504.5,909.26,504.88,909.78,504.89z"/>
		<path class="st3" d="M1039.29,529.93c-2.18,0.5-4.16-0.3-6.11-1.03c-4.61-1.71-8.69-4.35-12.45-7.48
			c-2.36-1.97-4.63-4.04-6.98-6.03c-2.57-2.17-5.29-4.14-8.12-5.95c-3.38-2.16-6.78-4.32-10.23-6.36c-1.97-1.16-4.07-2.1-6.12-3.11
			c-1.01-0.5-2.06-0.93-3.07-1.44c-0.29-0.14-0.52-0.42-0.77-0.63c0.94-0.13,1.44-0.76,1.89-1.53c4.18-7.34,9.36-13.93,15.39-19.8
			c6.82-6.64,14.87-11.29,24.15-13.62c4.51-1.13,9.1-1.81,13.74-2.23c3.48-0.31,6.96-0.5,10.45-0.34c5.34,0.24,10.63,0.9,15.85,2.08
			c0.24,0.06,0.48,0.14,0.77,0.22c-0.06,0.12-0.1,0.24-0.17,0.33c-5.59,6.26-10.24,13.17-14.2,20.57
			c-4.3,8.05-7.36,16.54-9.63,25.35c-0.37,1.46-0.19,2.64,0.52,3.93c1.38,2.5,2.72,5.03,3.88,7.63c0.88,1.97,1.44,4.07,2.14,6.12
			c0.07,0.2,0.08,0.41,0.13,0.7c-1.34-0.23-2.59-0.44-3.85-0.65c-1.83-0.31-3.68-0.35-5.54-0.38c-1.47-0.02-2.59,1.38-1.92,2.85
			C1039.14,529.39,1039.2,529.67,1039.29,529.93z M1009.71,504.9c0.69-0.01,1.3-0.43,1.64-1.23c1.59-3.74,3.92-7.02,6.45-10.14
			c5.35-6.58,11.88-11.81,19.1-16.19c3.2-1.94,6.54-3.61,10.16-4.62c0.51-0.14,1.04-0.25,1.54-0.43c0.85-0.31,1.37-1.13,1.28-1.98
			c-0.09-0.9-0.8-1.65-1.72-1.73c-0.39-0.03-0.81,0.06-1.2,0.16c-2.04,0.51-4.02,1.21-5.94,2.08c-5,2.27-9.58,5.21-13.94,8.54
			c-6.65,5.09-12.45,10.95-16.82,18.13c-0.91,1.5-1.71,3.07-2.44,4.66C1007.2,503.53,1008.1,504.88,1009.71,504.9z"/>
		<path class="st3" d="M962.46,595.49c0.29-0.14,0.57-0.28,0.85-0.43c2.22-1.14,3.65-2.92,4.29-5.33c0.65-2.44-0.3-4.84-2.63-5.82
			c-3.41-1.45-6.95-1.44-10.35,0.01c-2.28,0.97-3.21,3.32-2.61,5.75c0.63,2.54,2.16,4.37,4.5,5.49c0.58,0.28,0.75,0.6,0.79,1.21
			c0.14,2.35,0.36,4.7,0.51,7.04c0.04,0.56-0.04,1.13-0.14,1.68c-0.04,0.2-0.27,0.41-0.47,0.54c-3.03,2.01-6.27,3.58-9.85,4.3
			c-3.59,0.72-7.23,0.83-10.88,0.63c-3.27-0.18-6.51-0.53-9.71-1.19c-1.19-0.25-2.16-0.7-3.05-1.64c-2.35-2.53-3.66-5.52-4.28-8.86
			c-0.37-1.98-0.58-4.01-0.34-6.01c0.42-3.52,1.34-6.9,3.25-9.94c0.33-0.53,0.7-1.05,1.02-1.59c2.48-4.18,6.12-6.98,10.5-8.97
			c3.46-1.57,7.09-2.34,10.84-2.57c2.88-0.17,5.78-0.2,8.67-0.19c1.5,0.01,3.02,0.15,4.5,0.39c1.55,0.26,3.07,0.12,4.59-0.09
			c3.6-0.48,7.21-0.42,10.82-0.25c2.86,0.14,5.7,0.44,8.47,1.23c3.75,1.07,7.2,2.78,10.21,5.27c0.77,0.64,1.49,1.36,2.11,2.14
			c2.26,2.83,4.27,5.81,5.39,9.32c1.47,4.6,1.54,9.18,0.13,13.8c-0.85,2.78-2.38,5.11-4.47,7.09c-0.32,0.3-0.8,0.52-1.23,0.6
			c-2.19,0.41-4.37,0.9-6.59,1.12c-2.65,0.26-5.33,0.38-8,0.39c-2.89,0.01-5.78-0.26-8.57-1.07c-2.95-0.85-5.67-2.19-8.23-3.87
			c-0.4-0.26-0.65-0.59-0.63-1.08c0.05-0.97,0.09-1.94,0.16-2.91C962.16,599.66,962.31,597.63,962.46,595.49z"/>
		<path class="st4" d="M1009.71,603.86c0.29-1.41,0.63-2.81,0.85-4.23c0.23-1.48,0.37-2.98,0.49-4.48c0.1-1.31,0.17-2.63,0.17-3.95
			c0-1.5-0.13-3.01-0.14-4.51c0-2.19-0.4-4.3-1.15-6.35c-0.41-1.11-0.25-2.09,0.67-2.9c0.96-0.85,1.91-1.73,2.87-2.58
			c2.8-2.5,5.05-5.41,6.62-8.82c1.17-2.54,2-5.21,2.66-7.92c0.06-0.24,0.11-0.49,0.19-0.73c0.5-1.45,2.13-1.92,3.26-0.9
			c1.38,1.25,2.56,2.67,3.49,4.29c1.48,2.59,2.39,5.37,2.88,8.31c0.44,2.63,0.87,5.25,0.96,7.92c0.07,2.26,0.21,4.52,0.12,6.77
			c-0.11,2.91-0.43,5.8-1,8.67c-0.21,1.07-0.41,2.15-0.64,3.22c-0.06,0.26-0.23,0.5-0.35,0.74c-0.36-0.19-0.73-0.36-1.08-0.56
			c-0.61-0.35-1.25-0.4-1.9-0.13c-0.58,0.24-1.15,0.49-1.72,0.74c-5.51,2.39-11.03,4.78-16.54,7.16
			C1010.18,603.72,1009.94,603.78,1009.71,603.86z"/>
		<path class="st4" d="M887.91,596.44c-0.24-0.9-0.55-1.79-0.72-2.71c-0.35-1.97-0.68-3.95-0.93-5.94c-0.16-1.3-0.22-2.63-0.25-3.94
			c-0.04-1.92-0.09-3.84,0.01-5.75c0.11-2.12,0.29-4.25,0.61-6.35c0.32-2.13,0.71-4.27,1.31-6.34c0.95-3.31,2.62-6.25,5.16-8.63
			c0.37-0.35,0.88-0.65,1.36-0.75c1.13-0.23,1.97,0.41,2.3,1.57c0.45,1.6,0.86,3.21,1.36,4.79c1.01,3.17,2.47,6.11,4.53,8.73
			c1.7,2.16,3.7,4.02,5.78,5.79c0.36,0.3,0.7,0.63,0.99,0.99c0.54,0.66,0.65,1.39,0.35,2.21c-0.71,1.92-1.18,3.89-1.17,5.96
			c0.01,2.64-0.21,5.28-0.1,7.91c0.12,3,0.37,6,1.2,8.92c0.07,0.26,0.03,0.55,0.05,0.83c-0.29-0.08-0.6-0.13-0.88-0.25
			c-5.66-2.45-11.32-4.87-16.95-7.38c-1.3-0.58-2.43-0.73-3.6,0.15C888.22,596.34,888.06,596.37,887.91,596.44z"/>
		<path class="st5" d="M959.84,608.55c1.91,1.33,3.95,2.42,6.08,3.37c3.01,1.35,6.17,2.06,9.45,2.36c4.56,0.42,9.1,0.16,13.83-0.35
			c-0.38,0.31-0.62,0.52-0.88,0.71c-5.44,4.09-11.47,6.91-18.1,8.48c-3.37,0.8-6.78,1.36-10.24,1.39c-2.03,0.02-4.08-0.22-6.09-0.52
			c-4.64-0.7-9.13-1.97-13.42-3.89c-3.39-1.52-6.52-3.51-9.49-5.73c-0.14-0.1-0.24-0.26-0.41-0.44c3.61,0.41,7.15,0.58,10.71,0.53
			c6.62-0.09,12.67-1.95,18.15-5.67C959.54,608.72,959.67,608.64,959.84,608.55z"/>
		<path class="st4" d="M909.76,603.71c0.07,0.05,0.15,0.1,0.22,0.15C909.91,603.81,909.84,603.76,909.76,603.71z"/>
		<path class="st4" d="M919.03,535.72c-2.66-0.05-5.23,0.53-7.81,1.08c-0.39,0.08-0.8,0.14-1.21,0.13c-0.8-0.02-1.54-0.61-1.69-1.39
			c-0.18-0.92-0.17-1.82,0.6-2.53c0.86-0.78,1.64-1.66,2.58-2.34c1.62-1.18,3.29-2.3,5.01-3.33c2.42-1.45,5.08-2.31,7.83-2.85
			c1.32-0.26,2.66-0.49,4-0.53c1.85-0.07,3.69,0.19,5.44,0.89c3.22,1.3,5.96,3.23,7.89,6.16c1.71,2.61,2.2,5.42,1.13,8.43
			c-0.93,2.62-3.65,4.33-6.05,4.33c-1.74,0-3.18-0.53-4.49-1.61c-1.59-1.32-3.16-2.68-4.83-3.9c-1.66-1.21-3.53-2.05-5.59-2.36
			C920.92,535.78,919.97,535.78,919.03,535.72z"/>
		<path class="st4" d="M976.39,536.36c-0.15-2.46,0.81-4.53,2.33-6.38c2.1-2.56,4.74-4.37,7.91-5.36c1.87-0.59,3.78-0.74,5.75-0.56
			c3.55,0.34,6.91,1.28,10.05,2.91c3.08,1.59,5.92,3.55,8.3,6.11c0.87,0.94,0.95,2.26,0.21,3.16c-0.63,0.76-1.45,0.81-2.32,0.64
			c-1.26-0.24-2.5-0.58-3.77-0.78c-2.64-0.42-5.31-0.63-7.94-0.01c-2.46,0.58-4.57,1.88-6.5,3.48c-1.16,0.96-2.29,1.95-3.46,2.91
			c-3.12,2.56-8.54,1.26-10.05-2.92c-0.19-0.53-0.4-1.07-0.49-1.62C976.33,537.43,976.39,536.89,976.39,536.36z"/>
		<path class="st1" d="M1020.71,557.56c-0.32,6.2-3.38,11.22-9.33,14.16c-6.48,3.21-12.88,2.62-18.75-1.64
			c-8.36-6.08-8.87-18.34-1.14-25.19c6.88-6.09,17.19-6.02,23.94,0.23C1018.9,548.34,1020.63,552.37,1020.71,557.56z
			 M1002.27,569.79c3.72,0.01,6.16-0.67,8.42-2.05c7.35-4.49,8.24-14.4,1.79-20.07c-4.95-4.35-12.63-4.53-17.79-0.42
			c-4.85,3.87-6.27,10.45-3.24,15.74C994.05,567.55,998.18,569.64,1002.27,569.79z"/>
		<path class="st1" d="M916.93,540.38c6.91,0.03,13.41,4.58,15.73,11.25c1.86,5.36,1.14,10.45-2.25,14.99
			c-6.23,8.35-18.34,9.46-26.06,2.46c-3.56-3.23-5.45-7.29-5.4-12.09c0.07-6.05,2.87-10.69,7.93-13.93
			C909.71,541.26,912.85,540.45,916.93,540.38z M915.37,569.79c3.99,0,6.78-0.9,9.26-2.73c6.16-4.55,6.88-13.21,1.55-18.67
			c-4.93-5.06-13.24-5.51-18.69-1.02c-4.74,3.91-6.1,10.26-3.16,15.52C906.92,567.52,911.07,569.62,915.37,569.79z"/>
		<path class="st6" d="M909.78,504.89c-0.52-0.01-1.12-0.39-1.45-1.1c-4.07-8.74-10.51-15.46-18.04-21.28
			c-3.49-2.69-7.14-5.12-11.08-7.12c-2.5-1.26-5.06-2.34-7.8-2.98c-0.79-0.18-1.38-0.61-1.6-1.42c-0.37-1.43,0.81-2.71,2.26-2.37
			c1.31,0.31,2.61,0.68,3.88,1.14c4.51,1.64,8.67,3.97,12.6,6.69c4.63,3.21,9.01,6.73,12.92,10.81c3.56,3.72,6.59,7.83,9.12,12.31
			c0.51,0.9,0.95,1.85,1.3,2.81C912.36,503.65,911.39,504.91,909.78,504.89z"/>
		<path class="st6" d="M1009.71,504.9c-1.61-0.02-2.51-1.37-1.88-2.74c0.73-1.59,1.53-3.17,2.44-4.66
			c4.37-7.18,10.17-13.05,16.82-18.13c4.36-3.33,8.94-6.27,13.94-8.54c1.92-0.87,3.9-1.57,5.94-2.08c0.39-0.1,0.81-0.19,1.2-0.16
			c0.92,0.07,1.63,0.82,1.72,1.73c0.09,0.85-0.42,1.68-1.28,1.98c-0.5,0.18-1.03,0.29-1.54,0.43c-3.63,1.01-6.97,2.68-10.16,4.62
			c-7.22,4.38-13.75,9.61-19.1,16.19c-2.54,3.12-4.86,6.4-6.45,10.14C1011.01,504.47,1010.4,504.89,1009.71,504.9z"/>
		<path class="st3" d="M1002.27,569.79c-4.09-0.15-8.22-2.24-10.83-6.8c-3.03-5.29-1.61-11.87,3.24-15.74
			c5.17-4.12,12.85-3.94,17.79,0.42c6.45,5.68,5.56,15.59-1.79,20.07C1008.44,569.12,1006,569.8,1002.27,569.79z"/>
		<path class="st3" d="M915.37,569.79c-4.3-0.17-8.45-2.28-11.03-6.9c-2.94-5.27-1.58-11.62,3.16-15.52
			c5.45-4.49,13.76-4.03,18.69,1.02c5.32,5.47,4.61,14.12-1.55,18.67C922.15,568.89,919.36,569.8,915.37,569.79z"/>
	</g>
</g>
</svg>
