<svg viewBox="0 0 245.85 245.85" xmlns="http://www.w3.org/2000/svg"><path d="m234.71 42.99c1.05.4 1.5 1.35 1.21 2.43-.24.89-.66 1.64-1.3 2.34-5.79 6.27-10.57 13.23-14.59 20.75-4.16 7.77-7.15 15.96-9.31 24.48-.13.51-.06.94.19 1.42 1.29 2.44 2.6 4.87 3.78 7.37 1.62 3.42 2.63 7.04 3.3 10.76.29 1.57-1 2.81-2.55 2.45-2.63-.62-5.27-1.18-7.96-1.47-.18-.02-.36-.04-.66-.06.11.37.18.66.27.94 1.76 5.3 3.59 10.57 5.02 15.98 1.6 6.03 3.03 12.11 4 18.28.67 4.29 1.12 8.6 1.43 12.92.52 7.21.88 14.43.94 21.66 0 .19.01.38 0 .57-.03 1.13-.61 1.82-1.72 2-.84.13-1.68.26-2.52.32-3.01.23-6.02.57-9.04.26-4.11-.41-8.14-1.17-11.82-3.17-.56-.3-1.02-.28-1.58-.02-6.54 3.02-13.17 5.86-19.87 8.54-3.87 1.55-7.84 2.83-11.86 3.95-.48.14-.84.36-1.16.72-2.43 2.72-5.31 4.88-8.34 6.87-6.33 4.15-13.32 6.52-20.74 7.74-2.13.35-4.3.57-6.46.62-2.73.07-5.46-.3-8.14-.79-4.62-.83-9.13-2.09-13.37-4.1-5.5-2.62-10.6-5.86-14.75-10.43-.21-.24-.53-.45-.84-.53-6.29-1.77-12.39-4.04-18.38-6.65-4.51-1.97-9.02-3.93-13.52-5.93-.59-.26-1.06-.3-1.65.03-2.72 1.52-5.71 2.21-8.74 2.77-3.41.62-6.82.57-10.24.26-1.41-.13-2.81-.27-4.21-.45-1.32-.17-1.94-.88-1.9-2.23.13-4.62.28-9.24.47-13.85.09-2.39.26-4.77.42-7.15.51-7.85 1.59-15.61 3.3-23.29 1.87-8.41 4.36-16.62 7.18-24.75.11-.32.2-.65.35-1.11-2.5.25-4.8.66-7.1 1.19-.45.1-.91.21-1.37.31-1.77.41-3.01-.71-2.71-2.49.49-2.92 1.3-5.75 2.35-8.52 1.22-3.2 2.85-6.21 4.52-9.2.39-.7.49-1.33.29-2.12-3.08-12.45-8.29-23.93-15.51-34.5-2.61-3.82-5.52-7.41-8.69-10.78-.68-.71-.86-1.6-1-2.47-.14-.86.51-1.66 1.47-1.94 1.48-.42 2.96-.84 4.46-1.17 4.98-1.08 10.02-1.67 15.11-1.95 6.03-.33 11.99.25 17.93 1.13 3.73.56 7.43 1.24 11.03 2.4 7.98 2.57 15.07 6.71 21.26 12.33 5.66 5.13 10.41 11.06 14.67 17.39.85 1.28 1.65 2.59 2.49 3.92 1.59-.26 3.2-.54 4.8-.79 4.91-.78 9.84-1.33 14.82-1.28 3.36.03 6.72.02 10.08 0 4.44-.03 8.84.41 13.23 1.09 2.01.31 4.02.64 6.1.97.11-.16.26-.36.38-.57 4.22-7.05 9.27-13.47 15.14-19.19 7.61-7.42 16.58-12.55 26.99-14.97 4.84-1.13 9.74-1.88 14.7-2.2 2.2-.14 4.4-.36 6.59-.33 7.34.09 14.6.89 21.71 2.79.54.15 1.09.3 1.62.5zm-3.97 3.27c.08-.08.11-.2.17-.33-.29-.08-.52-.16-.77-.21-5.22-1.19-10.51-1.85-15.85-2.09-3.49-.16-6.97.03-10.45.34-4.63.42-9.23 1.09-13.74 2.23-9.28 2.33-17.33 6.97-24.15 13.62-6.03 5.87-11.2 12.47-15.38 19.8-.45.78-.95 1.4-1.89 1.54-2.29-.41-4.56-.89-6.86-1.22-2.79-.4-5.6-.82-8.41-.99-3.29-.21-6.59-.17-9.89-.21-1.5-.02-3.02.09-4.52.03-2.9-.12-5.78.07-8.65.37-4.31.45-8.59 1.1-12.83 2.02-.89 0-1.4-.57-1.79-1.27-2.97-5.27-6.58-10.09-10.5-14.69-3.96-4.63-8.33-8.78-13.49-12.08-4.9-3.14-10.11-5.56-15.77-6.94-3.87-.95-7.8-1.6-11.77-2.02-3.63-.38-7.25-.67-10.91-.57-4.24.11-8.46.51-12.65 1.21-1.81.3-3.61.7-5.52 1.08.17.23.25.36.35.47 5.92 6.61 10.75 13.96 14.83 21.83 4.12 7.96 7.03 16.35 9.14 25.03.15.64.06 1.25-.21 1.84-.17.37-.38.72-.57 1.08-1.4 2.78-2.85 5.52-4.17 8.33-.9 1.92-1.49 3.96-1.97 6.11 1.34-.23 2.6-.44 3.86-.65 1.9-.33 3.81-.45 5.73-.35 1.46.07 2.23 1.23 1.8 2.63-.1.32-.19.65-.29.98-.06.11-.13.21-.17.32-3.18 9.07-6.07 18.22-8.08 27.63-1.28 6-2.22 12.04-2.71 18.15-.24 2.98-.47 5.95-.61 8.93-.22 4.46-.35 8.92-.51 13.38 0 .2.05.41.08.6.53.06 1 .12 1.47.16 3.67.31 7.32.47 10.97-.29 2.47-.52 4.89-1.11 7.1-2.37.15-.07.31-.1.43-.2 1.17-.87 2.3-.72 3.6-.14 5.63 2.51 11.3 4.93 16.95 7.38.28.12.59.17.88.25.08.03.14.08.21.13.08.06.15.13.23.16 2.41.91 4.82 1.81 7.22 2.71.23.08.47.13.77.21-.5-1.14-1.03-2.16-1.42-3.23-2.1-5.76-2.12-11.54-.25-17.37 1.23-3.83 3.41-7.11 5.84-10.25.99-1.28 2.13-2.4 3.39-3.39.42-.33.86-.64 1.3-.95 4.87-3.33 10.26-5.21 16.13-5.75 3.98-.36 7.98-.57 11.95-.17 3.14.32 6.24.31 9.38 0 3.72-.37 7.46-.18 11.2.12 5.17.41 10.05 1.76 14.56 4.37.66.38 1.31.78 1.94 1.2 1.81 1.19 3.46 2.56 4.81 4.3 1.13 1.46 2.22 2.97 3.21 4.53 2.99 4.72 4.44 9.88 4.19 15.47-.16 3.75-1.02 7.33-2.83 10.65-.06.12-.1.25-.21.52 2.93-.95 5.66-1.93 8.32-3.13.26-.1.53-.18.78-.29 5.4-2.33 10.8-4.67 16.2-7.01.66-.28 1.32-.57 1.99-.85.65-.26 1.28-.22 1.89.14.35.2.72.37 1.09.56 1.32.55 2.61 1.23 3.98 1.63 2.99.87 6.05 1.44 9.19 1.32 2.15-.08 4.31-.23 6.53-.35 0-.44.01-.74 0-1.05-.22-7.69-.47-15.38-1.25-23.04-.38-3.65-.77-7.31-1.41-10.92-1.59-8.97-3.84-17.79-6.78-26.42-.87-2.55-1.76-5.1-2.63-7.64-.09-.27-.15-.55-.26-.81-.67-1.47.45-2.87 1.92-2.85 1.86.03 3.71.07 5.54.38 1.25.22 2.51.43 3.85.66-.05-.29-.07-.51-.13-.7-.7-2.05-1.27-4.15-2.14-6.12-1.16-2.6-2.5-5.13-3.88-7.63-.71-1.29-.9-2.48-.52-3.93 2.26-8.82 5.32-17.31 9.62-25.36 3.96-7.4 8.61-14.31 14.2-20.57zm-68.11 138.99c1.6-4.77 1.61-9.54.08-14.34-1.12-3.54-3.15-6.54-5.43-9.4-.61-.75-1.3-1.46-2.05-2.08-3.01-2.5-6.45-4.22-10.2-5.29-3.22-.92-6.55-1.2-9.88-1.3-3.26-.1-6.54-.17-9.78.36-1.83.3-3.62.13-5.43-.13-1.09-.15-2.19-.24-3.29-.24-2.92.03-5.85.03-8.76.21-3.46.21-6.83.87-10.06 2.24-4.82 2.04-8.8 5.04-11.46 9.64-.14.25-.31.48-.46.72-2.53 4.04-3.82 8.45-3.6 13.23.22 4.72 1.56 9.01 5.01 12.46.55.55 1.12.93 1.9 1.1 2.64.57 5.3.99 8 1.21 4.11.33 8.22.39 12.31-.26 3.98-.64 7.54-2.29 10.88-4.48.2-.13.45-.32.5-.52.12-.51.2-1.06.17-1.58-.16-2.44-.38-4.88-.54-7.33-.03-.49-.16-.8-.64-1.01-.49-.2-.96-.48-1.39-.79-1.85-1.27-2.99-3.06-3.35-5.26-.39-2.44.8-4.95 4.15-5.81 1.78-.46 3.61-.55 5.43-.34 1.05.13 2.13.33 3.11.71 2.46.96 3.66 3.35 3.04 5.88-.51 2.09-1.65 3.78-3.47 4.97-.53.34-1.09.61-1.74.97-.01.16-.03.31-.04.47-.11 1.69-.23 3.38-.33 5.07-.07 1.16-.14 2.32-.2 3.48-.03.52.23.87.66 1.15 2.38 1.55 4.91 2.8 7.61 3.66 2.96.95 6.03 1.25 9.11 1.24 2.7 0 5.41-.13 8.09-.39 2.18-.22 4.34-.7 6.5-1.1.44-.09.93-.28 1.24-.58 1.94-1.84 3.45-3.98 4.31-6.54zm-11.06 12.64c.25-.19.49-.4.87-.71-4.73.5-9.27.76-13.83.34-3.28-.3-6.44-1.01-9.45-2.36-2.12-.95-4.16-2.04-6.08-3.37-.14.09-.24.15-.34.22-5.56 3.77-11.7 5.66-18.42 5.72-3.49.03-6.97-.15-10.52-.54.17.18.28.33.42.44 2.98 2.22 6.1 4.21 9.49 5.73 4.29 1.91 8.78 3.19 13.42 3.88 2.02.31 4.07.54 6.1.52 3.46-.03 6.87-.59 10.24-1.39 6.63-1.57 12.66-4.39 18.1-8.48z" fill="#030303"/><path d="m230.91 45.93c-.06.13-.09.25-.17.33-5.59 6.26-10.24 13.17-14.2 20.57-4.3 8.05-7.36 16.54-9.62 25.36-.38 1.45-.19 2.64.52 3.93 1.38 2.5 2.72 5.03 3.88 7.63.87 1.97 1.44 4.07 2.14 6.12.06.19.08.41.13.7-1.34-.23-2.6-.44-3.85-.66-1.83-.31-3.68-.35-5.54-.38-1.47-.02-2.59 1.38-1.92 2.85.11.26.17.54.26.81-2.18.5-4.16-.31-6.12-1.03-4.61-1.72-8.69-4.35-12.45-7.48-2.36-1.97-4.63-4.05-6.98-6.03-2.56-2.17-5.28-4.14-8.12-5.96-3.38-2.16-6.77-4.32-10.23-6.36-2.08-1.22-4.29-2.21-6.46-3.28-.9-.44-1.83-.82-2.73-1.27-.29-.14-.52-.41-.77-.62.94-.14 1.44-.76 1.89-1.54 4.18-7.33 9.35-13.93 15.38-19.8 6.82-6.65 14.87-11.29 24.15-13.62 4.51-1.14 9.11-1.81 13.74-2.23 3.48-.31 6.96-.5 10.45-.34 5.34.24 10.63.9 15.85 2.09.25.05.48.13.77.21zm-19.05 9.61c.85-.31 1.36-1.14 1.28-1.99-.1-.9-.81-1.65-1.72-1.72-.4-.03-.81.06-1.2.16-2.05.52-4.03 1.21-5.94 2.08-5 2.27-9.58 5.21-13.94 8.54-6.65 5.09-12.45 10.95-16.82 18.13-.91 1.5-1.71 3.07-2.44 4.67-.63 1.37.27 2.72 1.88 2.74.69-.02 1.3-.43 1.64-1.24 1.59-3.73 3.92-7.02 6.45-10.13 5.36-6.58 11.88-11.81 19.11-16.19 3.19-1.94 6.53-3.61 10.16-4.62.51-.15 1.04-.25 1.54-.43z" fill="#fff"/><path d="m214.61 181.21c.01.31 0 .61 0 1.05-2.22.12-4.38.27-6.53.35-3.14.12-6.2-.45-9.19-1.32-1.37-.4-2.66-1.08-3.98-1.63.11-.25.29-.48.34-.74.24-1.07.43-2.15.65-3.23.56-2.86.88-5.76 1-8.66.08-2.25-.05-4.52-.13-6.77-.09-2.67-.52-5.3-.96-7.92-.49-2.94-1.39-5.72-2.87-8.31-.93-1.62-2.11-3.05-3.49-4.29-1.14-1.02-2.77-.56-3.26.9-.08.23-.14.48-.2.72-.42 1.7-.9 3.38-1.48 5.02l-1.6-.44c1.88-5.05 1.15-10.95-2.21-15.32-3.52-4.59-8.26-6.79-13.92-6.99-4.41.05-8.57 1.41-12.1 4.57-6.67 5.98-7.26 16.24-1.31 22.85.88.98 1.85 1.84 2.88 2.58l-.78 1.14c-.63-.42-1.28-.82-1.94-1.2-4.51-2.61-9.39-3.96-14.56-4.37-3.74-.3-7.48-.49-11.2-.12-3.14.31-6.24.32-9.38 0-3.97-.4-7.97-.19-11.95.17-5.87.54-11.26 2.42-16.13 5.75-.44.31-.88.62-1.3.95l-.78-1.29c2.06-1.16 3.93-2.76 5.44-4.79 3.35-4.49 4.1-9.54 2.31-14.82-2.36-6.94-8.96-11.38-16.02-11.42-4.45.09-8.04 1.2-11.15 3.59-4.29 3.31-6.6 7.7-6.6 13.13 0 1.5.19 2.93.55 4.28l-1.54.47c-.43-1.41-.8-2.83-1.2-4.25-.32-1.17-1.17-1.8-2.3-1.57-.49.1-.99.4-1.36.75-2.54 2.38-4.21 5.32-5.16 8.63-.59 2.06-.98 4.2-1.3 6.34-.32 2.1-.5 4.23-.61 6.35-.1 1.91-.05 3.83-.02 5.75.03 1.31.09 2.64.25 3.94.25 1.99.57 3.97.93 5.94.16.91.47 1.8.71 2.71-2.21 1.26-4.63 1.85-7.1 2.37-3.65.76-7.3.6-10.97.29-.47-.04-.94-.1-1.47-.16-.03-.19-.09-.4-.08-.6.16-4.46.29-8.92.51-13.38.14-2.98.37-5.95.61-8.93.49-6.11 1.43-12.15 2.71-18.15 2.01-9.41 4.9-18.56 8.08-27.63.04-.11.11-.21.17-.32.71.04 1.39.26 2.14.11 3.85-.77 7.29-2.45 10.62-4.45 4.25-2.56 7.83-5.96 11.59-9.14 1.94-1.64 3.89-3.28 5.98-4.73 3.12-2.16 6.34-4.18 9.56-6.19 2.26-1.42 4.55-2.79 6.9-4.04 2.05-1.09 4.2-1.99 6.3-2.99.29-.14.54-.39.81-.59 4.24-.92 8.52-1.57 12.83-2.02 2.87-.3 5.75-.49 8.65-.37 1.5.06 3.02-.05 4.52-.03 3.3.04 6.6 0 9.89.21 2.81.17 5.62.59 8.41.99 2.3.33 4.57.81 6.86 1.22.25.21.48.48.77.62.9.45 1.83.83 2.73 1.27 2.17 1.07 4.38 2.06 6.46 3.28 3.46 2.04 6.85 4.2 10.23 6.36 2.84 1.82 5.56 3.79 8.12 5.96 2.35 1.98 4.62 4.06 6.98 6.03 3.76 3.13 7.84 5.76 12.45 7.48 1.96.72 3.94 1.53 6.12 1.03.87 2.54 1.76 5.09 2.63 7.64 2.94 8.63 5.19 17.45 6.78 26.42.64 3.61 1.03 7.27 1.41 10.92.78 7.66 1.03 15.35 1.25 23.04zm-40.54-61.59c.84-.88.83-2.27-.05-3.23-2.37-2.57-5.21-4.53-8.28-6.13-3.17-1.65-6.56-2.61-10.14-2.95-1.97-.18-3.87-.02-5.74.57-3.17.99-5.81 2.81-7.91 5.37-1.51 1.85-2.46 3.92-2.35 6.48-.1.96.14 1.95.48 2.94 1.48 4.33 7.04 5.68 10.21 3 1.41-1.19 2.83-2.38 4.27-3.54 3.47-2.79 7.49-3.54 11.79-3.02 1.83.22 3.63.67 5.44 1.01.83.16 1.62.19 2.28-.5zm-67.49.74c.18-2.26-.44-4.34-1.74-6.21-1.97-2.86-4.67-4.78-7.86-6.06-1.72-.68-3.53-.93-5.35-.87-1.34.05-2.68.28-4 .53-2.75.54-5.41 1.39-7.83 2.84-1.72 1.03-3.4 2.14-5.01 3.33-1.03.76-1.93 1.7-2.81 2.63-.63.66-.65 2-.21 2.74.47.78 1.31 1.08 2.4.87 1.78-.34 3.55-.82 5.35-.98 1.83-.17 3.71-.21 5.54 0 2.61.31 4.85 1.64 6.9 3.25 1.26.99 2.44 2.07 3.67 3.08 1.18.96 2.47 1.63 4.06 1.54.56-.06 1.13-.06 1.67-.19 3.22-.81 4.96-3.36 5.22-6.5z" fill="#7fb2f0"/><path d="m213.14 53.55c.08.85-.43 1.68-1.28 1.99-.5.18-1.03.28-1.54.43-3.63 1.01-6.97 2.68-10.16 4.62-7.23 4.38-13.75 9.61-19.11 16.19-2.53 3.11-4.86 6.4-6.45 10.13-.34.81-.95 1.22-1.64 1.24-1.61-.02-2.51-1.37-1.88-2.74.73-1.6 1.53-3.17 2.44-4.67 4.37-7.18 10.17-13.04 16.82-18.13 4.36-3.33 8.94-6.27 13.94-8.54 1.91-.87 3.89-1.56 5.94-2.08.39-.1.8-.19 1.2-.16.91.07 1.62.82 1.72 1.72z" fill="#040404"/><path d="m196.77 160.26c.08 2.25.21 4.52.13 6.77-.12 2.9-.44 5.8-1 8.66-.22 1.08-.41 2.16-.65 3.23-.05.26-.23.49-.34.74-.37-.19-.74-.36-1.09-.56-.61-.36-1.24-.4-1.89-.14-.67.28-1.33.57-1.99.85-5.4 2.34-10.8 4.68-16.2 7.01-.25.11-.52.19-.78.29.28-1.41.62-2.81.84-4.23.23-1.49.37-2.99.49-4.48.1-1.31.17-2.63.17-3.95 0-1.5-.13-3.01-.14-4.51 0-2.19-.39-4.3-1.15-6.35-.41-1.11-.25-2.08.67-2.9.97-.85 1.91-1.72 2.87-2.58 2.8-2.5 5.05-5.41 6.62-8.82.44-.96.83-1.93 1.18-2.91.58-1.64 1.06-3.32 1.48-5.02.06-.24.12-.49.2-.72.49-1.46 2.12-1.92 3.26-.9 1.38 1.24 2.56 2.67 3.49 4.29 1.48 2.59 2.38 5.37 2.87 8.31.44 2.62.87 5.25.96 7.92z" fill="#fff"/><path d="m182.91 145.94 1.6.44c-.35.98-.74 1.95-1.18 2.91-1.57 3.41-3.82 6.32-6.62 8.82-.96.86-1.9 1.73-2.87 2.58-.92.82-1.08 1.79-.67 2.9.76 2.05 1.15 4.16 1.15 6.35.01 1.5.14 3.01.14 4.51 0 1.32-.07 2.64-.17 3.95-.12 1.49-.26 2.99-.49 4.48-.22 1.42-.56 2.82-.84 4.23-2.66 1.2-5.39 2.18-8.32 3.13.11-.27.15-.4.21-.52 1.81-3.32 2.67-6.9 2.83-10.65.25-5.59-1.2-10.75-4.19-15.47-.99-1.56-2.08-3.07-3.21-4.53-1.35-1.74-3-3.11-4.81-4.3l.78-1.14c7.6 5.44 18.54 4.09 24.47-3.71.94-1.23 1.67-2.57 2.19-3.98z" fill="#7fb2f0"/><path d="m180.7 130.62c3.36 4.37 4.09 10.27 2.21 15.32-.52 1.41-1.25 2.75-2.19 3.98-5.93 7.8-16.87 9.15-24.47 3.71-1.03-.74-2-1.6-2.88-2.58-5.95-6.61-5.36-16.87 1.31-22.85 3.53-3.16 7.69-4.52 12.1-4.57 5.66.2 10.4 2.4 13.92 6.99zm-5.79 19.72c6.47-4.73 6.91-14.02.93-19.33-4.98-4.42-12.49-4.67-17.79-.6-4.9 3.76-6.39 10.45-3.38 15.79 2.59 4.57 6.71 6.67 10.91 6.84 4.06 0 6.85-.89 9.33-2.7z" fill="#030303"/><path d="m175.84 131.01c5.98 5.31 5.54 14.6-.93 19.33-2.48 1.81-5.27 2.71-9.33 2.7-4.2-.17-8.32-2.27-10.91-6.84-3.01-5.34-1.52-12.03 3.38-15.79 5.3-4.07 12.81-3.82 17.79.6zm-9.28 19.39c5.19-.03 9.57-4.27 9.5-9.52.09-5.14-4.11-9.46-9.36-9.57-5.31-.12-9.79 4.01-9.81 9.52-.03 5.41 4.37 9.61 9.67 9.57z" fill="#fff"/><path d="m176.06 140.88c.07 5.25-4.31 9.49-9.5 9.52-5.3.04-9.7-4.16-9.67-9.57.02-5.51 4.5-9.64 9.81-9.52 5.25.11 9.45 4.43 9.36 9.57z" fill="#020101"/><path d="m174.02 116.39c.88.96.89 2.35.05 3.23-.66.69-1.45.66-2.28.5-1.81-.34-3.61-.79-5.44-1.01-4.3-.52-8.32.23-11.79 3.02-1.44 1.16-2.86 2.35-4.27 3.54-3.17 2.68-8.73 1.33-10.21-3-.34-.99-.58-1.98-.48-2.94-.11-2.56.84-4.63 2.35-6.48 2.1-2.56 4.74-4.38 7.91-5.37 1.87-.59 3.77-.75 5.74-.57 3.58.34 6.97 1.3 10.14 2.95 3.07 1.6 5.91 3.56 8.28 6.13zm-11.31 54.52c1.53 4.8 1.52 9.57-.08 14.34-.86 2.56-2.37 4.7-4.31 6.54-.31.3-.8.49-1.24.58-2.16.4-4.32.88-6.5 1.1-2.68.26-5.39.39-8.09.39-3.08.01-6.15-.29-9.11-1.24-2.7-.86-5.23-2.11-7.61-3.66-.43-.28-.69-.63-.66-1.15.06-1.16.13-2.32.2-3.48.1-1.69.22-3.38.33-5.07.01-.16.03-.31.04-.47.65-.36 1.21-.63 1.74-.97 1.82-1.19 2.96-2.88 3.47-4.97.62-2.53-.58-4.92-3.04-5.88-.98-.38-2.06-.58-3.11-.71-1.82-.21-3.65-.12-5.43.34-3.35.86-4.54 3.37-4.15 5.81.36 2.2 1.5 3.99 3.35 5.26.43.31.9.59 1.39.79.48.21.61.52.64 1.01.16 2.45.38 4.89.54 7.33.03.52-.05 1.07-.17 1.58-.05.2-.3.39-.5.52-3.34 2.19-6.9 3.84-10.88 4.48-4.09.65-8.2.59-12.31.26-2.7-.22-5.36-.64-8-1.21-.78-.17-1.35-.55-1.9-1.1-3.45-3.45-4.79-7.74-5.01-12.46-.22-4.78 1.07-9.19 3.6-13.23.15-.24.32-.47.46-.72 2.66-4.6 6.64-7.6 11.46-9.64 3.23-1.37 6.6-2.03 10.06-2.24 2.91-.18 5.84-.18 8.76-.21 1.1 0 2.2.09 3.29.24 1.81.26 3.6.43 5.43.13 3.24-.53 6.52-.46 9.78-.36 3.33.1 6.66.38 9.88 1.3 3.75 1.07 7.19 2.79 10.2 5.29.75.62 1.44 1.33 2.05 2.08 2.28 2.86 4.31 5.86 5.43 9.4z" fill="#fff"/><path d="m152.44 197.18c-.38.31-.62.52-.87.71-5.44 4.09-11.47 6.91-18.1 8.48-3.37.8-6.78 1.36-10.24 1.39-2.03.02-4.08-.21-6.1-.52-4.64-.69-9.13-1.97-13.42-3.88-3.39-1.52-6.51-3.51-9.49-5.73-.14-.11-.25-.26-.42-.44 3.55.39 7.03.57 10.52.54 6.72-.06 12.86-1.95 18.42-5.72.1-.07.2-.13.34-.22 1.92 1.33 3.96 2.42 6.08 3.37 3.01 1.35 6.17 2.06 9.45 2.36 4.56.42 9.1.16 13.83-.34zm-47.6-83.03c1.3 1.87 1.92 3.95 1.74 6.21-.26 3.14-2 5.69-5.22 6.5-.54.13-1.11.13-1.67.19-1.59.09-2.88-.58-4.06-1.54-1.23-1.01-2.41-2.09-3.67-3.08-2.05-1.61-4.29-2.94-6.9-3.25-1.83-.21-3.71-.17-5.54 0-1.8.16-3.57.64-5.35.98-1.09.21-1.93-.09-2.4-.87-.44-.74-.42-2.08.21-2.74.88-.93 1.78-1.87 2.81-2.63 1.61-1.19 3.29-2.3 5.01-3.33 2.42-1.45 5.08-2.3 7.83-2.84 1.32-.25 2.66-.48 4-.53 1.82-.06 3.63.19 5.35.87 3.19 1.28 5.89 3.2 7.86 6.06zm-7.32-32.99c-.27.2-.52.45-.81.59-2.1 1-4.25 1.9-6.3 2.99-2.35 1.25-4.64 2.62-6.9 4.04-3.22 2.01-6.44 4.03-9.56 6.19-2.09 1.45-4.04 3.09-5.98 4.73-3.76 3.18-7.34 6.58-11.59 9.14-3.33 2-6.77 3.68-10.62 4.45-.75.15-1.43-.07-2.14-.11.1-.33.19-.66.29-.98.43-1.4-.34-2.56-1.8-2.63-1.92-.1-3.83.02-5.73.35-1.26.21-2.52.42-3.86.65.48-2.15 1.07-4.19 1.97-6.11 1.32-2.81 2.77-5.55 4.17-8.33.19-.36.4-.71.57-1.08.27-.59.36-1.2.21-1.84-2.11-8.68-5.02-17.07-9.14-25.03-4.08-7.87-8.91-15.22-14.83-21.83-.1-.11-.18-.24-.35-.47 1.91-.38 3.71-.78 5.52-1.08 4.19-.7 8.41-1.1 12.65-1.21 3.66-.1 7.28.19 10.91.57 3.97.42 7.9 1.07 11.77 2.02 5.66 1.38 10.87 3.8 15.77 6.94 5.16 3.3 9.53 7.45 13.49 12.08 3.92 4.6 7.53 9.42 10.5 14.69.39.7.9 1.26 1.79 1.27zm-24.42 6.99c1.56-.02 2.45-1.25 2.07-2.49-.09-.29-.22-.58-.35-.87-1.8-3.94-4.3-7.44-7.02-10.79-3.14-3.87-6.77-7.24-10.67-10.34-4.49-3.57-9.22-6.75-14.42-9.19-2.36-1.11-4.79-2.04-7.34-2.6-1.47-.31-2.65.9-2.31 2.34.2.82.78 1.27 1.57 1.45 3.36.78 6.45 2.22 9.47 3.85 4.26 2.28 8.12 5.12 11.84 8.18 6.53 5.37 12.02 11.58 15.63 19.32.35.75.96 1.14 1.53 1.14z" fill="#fff"/><path d="m95.98 135.05c1.79 5.28 1.04 10.33-2.31 14.82-1.51 2.03-3.38 3.63-5.44 4.79-6.39 3.61-14.7 2.99-20.54-2.25-2.46-2.2-4.13-4.81-4.93-7.78-.36-1.35-.55-2.78-.55-4.28 0-5.43 2.31-9.82 6.6-13.13 3.11-2.39 6.7-3.5 11.15-3.59 7.06.04 13.66 4.48 16.02 11.42zm-8.08 15.25c6.15-4.57 6.85-13.21 1.52-18.68-5.2-5.33-14.1-5.47-19.47-.31-4.2 4.04-5.14 10.33-2.18 15.18 2.67 4.39 6.72 6.41 10.87 6.56 4 0 6.78-.91 9.26-2.75z" fill="#030303"/><path d="m89.42 131.62c5.33 5.47 4.63 14.11-1.52 18.68-2.48 1.84-5.26 2.74-9.26 2.75-4.15-.15-8.2-2.17-10.87-6.56-2.96-4.85-2.02-11.14 2.18-15.18 5.37-5.16 14.27-5.02 19.47.31zm-9.68 18.77c5.29.01 9.61-4.36 9.51-9.72-.1-5.38-4.56-9.51-9.98-9.36-5.2.14-9.33 4.54-9.22 9.82.1 5.15 4.53 9.39 9.69 9.26z" fill="#fff"/><path d="m89.25 140.67c.1 5.36-4.22 9.73-9.51 9.72-5.16.13-9.59-4.11-9.69-9.26-.11-5.28 4.02-9.68 9.22-9.82 5.42-.15 9.88 3.98 9.98 9.36z" fill="#020101"/><path d="m88.23 154.66.78 1.29c-1.26.99-2.4 2.11-3.39 3.39-2.43 3.14-4.61 6.42-5.84 10.25-1.87 5.83-1.85 11.61.25 17.37.39 1.07.92 2.09 1.42 3.23-.3-.08-.54-.13-.77-.21-2.4-.9-4.81-1.8-7.22-2.71-.08-.03-.15-.1-.23-.16-.07-.05-.13-.1-.21-.14-.01-.28.03-.56-.05-.82-.83-2.92-1.07-5.92-1.19-8.92-.11-2.63.11-5.27.09-7.91 0-2.08.46-4.04 1.17-5.96.3-.82.19-1.55-.35-2.21-.29-.36-.64-.69-.99-.99-2.09-1.77-4.09-3.63-5.79-5.79-2.06-2.62-3.52-5.56-4.53-8.73-.06-.18-.11-.36-.16-.54l1.54-.47c.8 2.97 2.47 5.58 4.93 7.78 5.84 5.24 14.15 5.86 20.54 2.25z" fill="#7fb2f0"/><path d="m75.17 85.66c.38 1.24-.51 2.47-2.07 2.49-.57 0-1.18-.39-1.53-1.14-3.61-7.74-9.1-13.95-15.63-19.32-3.72-3.06-7.58-5.9-11.84-8.18-3.02-1.63-6.11-3.07-9.47-3.85-.79-.18-1.37-.63-1.57-1.45-.34-1.44.84-2.65 2.31-2.34 2.55.56 4.98 1.49 7.34 2.6 5.2 2.44 9.93 5.62 14.42 9.19 3.9 3.1 7.53 6.47 10.67 10.34 2.72 3.35 5.22 6.85 7.02 10.79.13.29.26.58.35.87z" fill="#040404"/><path d="m72.69 161.15c.54.66.65 1.39.35 2.21-.71 1.92-1.18 3.88-1.17 5.96.02 2.64-.2 5.28-.09 7.91.12 3 .36 6 1.19 8.92.08.26.04.54.05.82-.29-.07-.6-.12-.88-.24-5.65-2.45-11.32-4.87-16.95-7.38-1.3-.58-2.43-.73-3.6.14-.12.1-.28.13-.43.2-.24-.91-.55-1.8-.71-2.71-.36-1.97-.68-3.95-.93-5.94-.16-1.3-.22-2.63-.25-3.94-.03-1.92-.08-3.84.02-5.75.11-2.12.29-4.25.61-6.35.32-2.14.71-4.28 1.3-6.34.95-3.31 2.62-6.25 5.16-8.63.37-.35.87-.65 1.36-.75 1.13-.23 1.98.4 2.3 1.57.4 1.42.77 2.84 1.2 4.25.05.18.1.36.16.54 1.01 3.17 2.47 6.11 4.53 8.73 1.7 2.16 3.7 4.02 5.79 5.79.35.3.7.63.99.99z" fill="#fff"/></svg>